<svg width="48" height="48" viewBox="0 0 48 48" fill="none" xmlns="http://www.w3.org/2000/svg">
  <rect width="48" height="48" rx="12" fill="#181717"/>
  <path fill-rule="evenodd" clip-rule="evenodd" d="M24 12C17.373 12 12 17.373 12 24C12 29.302 15.438 33.8 20.207 35.387C20.806 35.498 21 35.126 21 34.81V32.999C17.171 33.753 16.5 31.283 16.5 31.283C15.999 29.899 15.172 29.527 15.172 29.527C14.037 28.755 15.26 28.773 15.26 28.773C16.514 28.86 17.127 30.04 17.127 30.04C18.244 31.924 20.064 31.371 21.048 31.063C21.157 30.246 21.466 29.693 21.81 29.393C19.145 29.09 16.344 28.003 16.344 23.17C16.344 21.847 16.809 20.767 17.151 19.917C17.03 19.613 16.619 18.337 17.263 16.626C17.263 16.626 18.328 16.306 20.988 18.039C21.988 17.771 23.038 17.637 24.088 17.632C25.138 17.637 26.188 17.771 27.188 18.039C29.847 16.306 30.911 16.626 30.911 16.626C31.556 18.337 31.144 19.613 31.024 19.917C31.368 20.767 31.831 21.847 31.831 23.17C31.831 28.015 29.025 29.087 26.351 29.384C26.775 29.759 27.163 30.496 27.163 31.622V34.81C27.163 35.129 27.355 35.504 27.963 35.386C32.728 33.797 36.163 29.301 36.163 24C36.163 17.373 30.627 12 24 12Z" fill="white"/>
</svg>
