<svg width="48" height="48" viewBox="0 0 48 48" fill="none" xmlns="http://www.w3.org/2000/svg">
  <rect width="48" height="48" rx="12" fill="white"/>
  <path d="M18 24C18 22.343 16.657 21 15 21C13.343 21 12 22.343 12 24C12 25.657 13.343 27 15 27H18V24Z" fill="#E01E5A"/>
  <path d="M19.5 24C19.5 22.343 20.843 21 22.5 21C24.157 21 25.5 22.343 25.5 24V33C25.5 34.657 24.157 36 22.5 36C20.843 36 19.5 34.657 19.5 33V24Z" fill="#E01E5A"/>
  <path d="M22.5 18C20.843 18 19.5 16.657 19.5 15C19.5 13.343 20.843 12 22.5 12C24.157 12 25.5 13.343 25.5 15V18H22.5Z" fill="#36C5F0"/>
  <path d="M22.5 19.5C24.157 19.5 25.5 20.843 25.5 22.5C25.5 24.157 24.157 25.5 22.5 25.5H13.5C11.843 25.5 10.5 24.157 10.5 22.5C10.5 20.843 11.843 19.5 13.5 19.5H22.5Z" fill="#36C5F0"/>
  <path d="M30 22.5C30 20.843 31.343 19.5 33 19.5C34.657 19.5 36 20.843 36 22.5C36 24.157 34.657 25.5 33 25.5H30V22.5Z" fill="#2EB67D"/>
  <path d="M28.5 22.5C28.5 24.157 27.157 25.5 25.5 25.5C23.843 25.5 22.5 24.157 22.5 22.5V13.5C22.5 11.843 23.843 10.5 25.5 10.5C27.157 10.5 28.5 11.843 28.5 13.5V22.5Z" fill="#2EB67D"/>
  <path d="M25.5 30C27.157 30 28.5 31.343 28.5 33C28.5 34.657 27.157 36 25.5 36C23.843 36 22.5 34.657 22.5 33V30H25.5Z" fill="#ECB22E"/>
  <path d="M25.5 28.5C23.843 28.5 22.5 27.157 22.5 25.5C22.5 23.843 23.843 22.5 25.5 22.5H34.5C36.157 22.5 37.5 23.843 37.5 25.5C37.5 27.157 36.157 28.5 34.5 28.5H25.5Z" fill="#ECB22E"/>
</svg>
