<svg width="75" height="17" viewBox="0 0 75 17" fill="none" xmlns="http://www.w3.org/2000/svg">
<path d="M74.4151 5.81735V5.70337C74.4151 4.67333 74.2014 3.79948 73.8096 3.06494L61.167 4.32717V16.3964H65.5118V11.4066H67.0654L69.9501 16.4006H74.8736L71.3791 10.5539C73.1731 9.70535 74.4151 8.21094 74.4151 5.81735ZM70.0213 6.02421C70.0213 7.31176 69.1488 8.11806 67.6664 8.11806H65.5073V3.90924H67.6397C69.0954 3.90924 70.0169 4.59734 70.0169 5.98199L70.0213 6.02421Z" fill="#464646"/>
<path d="M37.2932 10.3259L36.2025 6.82632L31.8711 7.26113L35.1341 16.4935H39.332L42.9913 6.15088L38.4462 6.60258L37.2932 10.3259Z" fill="#464646"/>
<path d="M25.1753 8.24019V8.48926C25.1753 11.2712 23.8176 12.9514 21.7787 12.9514C19.8022 12.9514 18.4088 11.3092 18.3554 8.6159L13.9082 9.05916C14.1352 13.6057 17.3404 16.7043 21.7565 16.7043C26.3149 16.7043 29.6403 13.3229 29.6403 8.51459V8.16843C29.6403 7.94047 29.6314 7.71251 29.6181 7.48877L25.1709 7.93202C25.1753 8.02912 25.1753 8.13043 25.1753 8.24019Z" fill="#464646"/>
<path d="M21.7565 3.74445C22.8471 3.74445 23.7597 4.24259 24.3696 5.14598L29.0928 4.93069C27.9754 1.90811 25.2555 0 21.7832 0C18.0972 0 15.2081 2.21628 14.2466 5.61879L19.0054 5.40349C19.593 4.33546 20.5635 3.74445 21.7565 3.74445Z" fill="#464646"/>
<path d="M34.164 0.295654H29.4097L31.0167 4.84642L35.5218 4.63956L34.164 0.295654Z" fill="#464646"/>
<path d="M45.0568 0.295654H40.4004L39.105 4.47493L43.6545 4.26807L45.0568 0.295654Z" fill="#464646"/>
<path d="M72.9327 1.92937C71.842 0.869776 70.1192 0.295654 67.84 0.295654H61.167V3.46599L73.7073 2.89187C73.498 2.54148 73.2354 2.21643 72.9327 1.92937Z" fill="#464646"/>
<path d="M55.0414 5.98201V6.02845C55.0414 7.316 54.1689 8.1223 52.6865 8.1223H50.5274V5.39945L46.1826 5.83426V16.4048H50.5274V11.4066H52.081L54.9657 16.4006H59.8892L56.3947 10.5539C58.1887 9.70536 59.4218 8.20673 59.4218 5.81738V5.7034C59.4218 5.30658 59.3906 4.90554 59.315 4.51294L54.8143 4.96464C54.9746 5.28547 55.0458 5.63163 55.0414 5.98201Z" fill="#464646"/>
<path d="M50.5274 3.90924H51.5068L59.0567 3.56308C58.8164 2.95096 58.4424 2.39373 57.9527 1.92937C56.8621 0.869775 55.1393 0.295654 52.8556 0.295654H46.1826V4.14986L50.5274 3.95145V3.90924Z" fill="#464646"/>
<path d="M14.3939 0.295654H9.37245L4.68932 6.6701V0.295654H0.322266V16.4006H4.68932V12.2129L6.04707 10.5328L9.47038 16.4006H14.5631L9.12761 7.15135L14.3939 0.295654Z" fill="#464646"/>
</svg>
